<svg width="48" height="48" viewBox="0 0 48 48" fill="none" xmlns="http://www.w3.org/2000/svg">
<rect width="48" height="48" rx="4" fill="black"/>
<path d="M33.4191 9.0395C33.5671 9.22011 34.2789 10.515 34.4353 10.7921L44.9998 29.4835C43.3958 30.8805 41.6137 32.3153 39.9716 33.6843C37.7966 35.5145 35.6126 37.3334 33.4191 39.141L33.4173 30.2779C30.4269 32.6703 27.4878 35.182 24.4927 37.569C23.5378 36.7612 22.5145 35.9502 21.5431 35.1555L15.6004 30.2913C15.5415 32.2411 15.5931 34.455 15.5935 36.4255C15.5933 37.2784 15.6238 38.3219 15.5741 39.1559C11.6973 36.0233 7.86516 32.6899 4 29.5206C5.35425 26.9929 6.92545 24.3331 8.34419 21.8231L15.5984 9C15.5589 9.51591 15.5917 10.4619 15.5919 11.0179L15.593 15.0415C18.5489 17.3875 21.5523 19.9233 24.4821 22.3258C25.4245 21.4988 26.6175 20.5748 27.5998 19.7734L33.4064 15.0362C33.4584 13.1059 33.4154 10.9874 33.4191 9.0395ZM15.5987 16.8291C15.5586 20.7034 15.6565 24.6532 15.5919 28.5124C18.5369 30.9253 21.5317 33.4224 24.5018 35.7978L30.5276 30.8634C31.4045 30.1458 32.5924 29.2315 33.4078 28.5026L33.4173 16.802L27.3252 21.7715C26.3938 22.5322 25.411 23.3638 24.4712 24.0996C22.6499 22.5423 20.658 20.9645 18.7963 19.439L16.7032 17.7226C16.4073 17.4798 15.9018 17.0378 15.5987 16.8291ZM43.2031 29.2064L35.5959 15.7316C35.4627 15.4958 34.9943 14.6356 34.8688 14.4955L34.8634 27.3253C34.8634 30.252 34.8353 33.2326 34.8703 36.1531L41.8781 30.3048C42.2851 29.9658 42.7885 29.5217 43.2031 29.2064ZM14.1367 36.1724L14.1377 16.056C14.138 15.8663 14.1555 14.6887 14.1204 14.5644L14.0921 14.5369L8.57453 24.2967C7.66668 25.9032 6.65719 27.6123 5.78975 29.2308C7.08305 30.2509 8.34132 31.3857 9.62738 32.4161C11.0771 33.6265 12.6627 35.0129 14.1367 36.1724Z" fill="white"/>
<path d="M19.586 14.385C22.9892 14.3781 26.6012 14.3212 29.9873 14.3987L27.3137 16.4685L24.4975 18.6386C22.6631 17.2588 20.837 15.8028 19.0132 14.402L19.586 14.385ZM24.4964 17.3781C24.9863 17.0069 25.4733 16.632 25.9578 16.2534L27.1366 15.343L21.8599 15.344C22.7263 16.0151 23.6192 16.7273 24.4964 17.3781Z" fill="white"/>
</svg>
