<svg height="512" viewBox="0 0 24 24" width="512" xmlns="http://www.w3.org/2000/svg"><g id="_22" data-name="22"><path d="m12.249 15.5625a2.00643 2.00643 0 0 1 -1.24851.4375 1.98412 1.98412 0 0 1 -1.41549-.58691l-2.999-2.999a1.99978 1.99978 0 1 1 2.82806-2.82815l1.73438 1.73437 6.58661-5.26989a9.05728 9.05728 0 1 0 1.93634 3.57373z" fill="#ffb319"/><path d="m11.00049 15a.997.997 0 0 1 -.70752-.293l-3-3a.99989.99989 0 0 1 1.41403-1.414l2.36719 2.36719 9.30127-7.44141a1.00018 1.00018 0 0 1 1.249 1.5625l-10 8a.99739.99739 0 0 1 -.62397.21872z" fill="#ffe194"/></g></svg>