<svg width="167" height="28" viewBox="0 0 167 28" fill="none" xmlns="http://www.w3.org/2000/svg">
<path d="M46.4118 9.65844L39.256 0H28.3184L41.7791 19.7423V27.9543H51.0327V19.7423L64.558 0H53.6204L46.4118 9.65844Z" fill="white"/>
<path d="M85.4838 0H65.8882V27.9543H75.1417V22.286H85.8036C88.6847 22.286 97.5187 21.0714 97.5187 10.7235C97.5187 0.375546 88.1214 0 85.4838 0ZM85.1904 14.0534H75.1417V8.22963H85.032C86.3317 8.22963 88.8607 8.32644 88.8607 11.0315C88.8607 13.7366 86.6104 14.0534 85.1904 14.0534Z" fill="white"/>
<path d="M99.5967 27.9548H130.42V20.2004H108.85V17.6861H129.053V10.2427H108.85V7.76946H130.42V0.0209961H99.5967V27.9548Z" fill="white"/>
<path d="M160.792 19.7041C163.506 18.2372 165.918 15.4441 165.918 10.2687C165.918 0.355003 156.529 0 153.889 0H133.378V27.9543H142.631V21.3383H151.046L155.787 27.9044L166.502 27.9514L160.792 19.7041ZM153.015 13.1762H142.631V8.16214H152.865C154.088 8.16214 156.474 8.24723 156.474 10.5768C156.474 12.9063 154.352 13.1762 153.015 13.1762Z" fill="white"/>
<path d="M9.31223 0.0166016H0V9.32883H9.31223V0.0166016Z" fill="white"/>
<path d="M9.31223 18.6433H0V27.9555H9.31223V18.6433Z" fill="white"/>
<path d="M9.31104 9.32764V18.6399H18.6233V27.955H27.9355V18.6399V9.32764H18.6233H9.31104Z" fill="white"/>
</svg>
