<svg width="271" height="57" viewBox="0 0 271 57" fill="none" xmlns="http://www.w3.org/2000/svg">
<path d="M55.2508 0.07418C55.5288 0.413386 56.8655 2.84528 57.1592 3.36563L77 38.4693C73.9877 41.0929 70.6407 43.7876 67.5567 46.3586C63.472 49.7957 59.3703 53.2117 55.2508 56.6065L55.2474 39.9611C49.6313 44.4542 44.1115 49.1714 38.4865 53.6543C36.6931 52.1372 34.7713 50.614 32.947 49.1216L21.7862 39.9863C21.6755 43.6482 21.7725 47.806 21.7732 51.5068C21.7729 53.1086 21.8302 55.0683 21.7368 56.6345C14.4559 50.7513 7.25899 44.4911 0 38.5389C2.54337 33.7917 5.49417 28.7965 8.15865 24.0825L21.7824 0C21.7083 0.968917 21.7699 2.74555 21.7703 3.78967L21.7723 11.3463C27.3237 15.7523 32.9642 20.5145 38.4667 25.0266C40.2365 23.4734 42.4769 21.7382 44.3218 20.233L55.2269 11.3364C55.3245 7.71118 55.2439 3.73243 55.2508 0.07418ZM21.7831 14.7036C21.7078 21.9797 21.8916 29.3976 21.7703 36.6455C27.3012 41.1769 32.9255 45.8668 38.5036 50.3278L49.8205 41.0608C51.4673 39.7131 53.6982 37.9959 55.2296 36.6271L55.2474 14.6525L43.8061 23.9857C42.0568 25.4142 40.2112 26.9761 38.4462 28.358C35.0256 25.4333 31.2847 22.4701 27.7883 19.605L23.8573 16.3816C23.3016 15.9255 22.3522 15.0954 21.7831 14.7036ZM73.6257 37.9488L59.3389 12.6424C59.0889 12.1995 58.2091 10.584 57.9734 10.3209L57.9632 34.416C57.9632 39.9126 57.9106 45.5102 57.9762 50.9952L71.1373 40.0116C71.9017 39.375 72.847 38.541 73.6257 37.9488ZM19.0373 51.0314L19.0391 13.2515C19.0398 12.8954 19.0726 10.6838 19.0068 10.4503L18.9536 10.3985L8.59123 28.7282C6.88625 31.7452 4.99035 34.9549 3.36126 37.9945C5.79014 39.9105 8.15325 42.0417 10.5685 43.9768C13.2911 46.25 16.2691 48.8538 19.0373 51.0314Z" fill="white"/>
<path d="M29.2714 10.1134C35.6628 10.1005 42.4464 9.99362 48.8056 10.139L43.7845 14.0263L38.4956 18.1019C35.0504 15.5105 31.6209 12.7761 28.1957 10.1452L29.2714 10.1134ZM38.4935 15.7346C39.4136 15.0375 40.3282 14.3334 41.238 13.6224L43.4518 11.9126L33.542 11.9144C35.169 13.1747 36.846 14.5123 38.4935 15.7346Z" fill="white"/>
<path d="M98.9937 25.455H94.4932L90.4615 18.2588V25.455H85V9H91.4929L96.8138 18.1182L102.158 9H108.675V25.455H103.236V18.212L98.9937 25.455Z" fill="white"/>
<path d="M110.161 9.02344H128.327V13.5708H115.623V15.0241H127.507V19.4074H115.623V20.9076H128.327V25.455H110.161V9.02344Z" fill="white"/>
<path d="M129.797 9H151.526V14.4615H143.392V25.455H137.931V14.4615H129.797V9Z" fill="white"/>
<path d="M164.026 9.04688L171.386 25.455H165.057L163.839 22.7125H155.705L154.463 25.455H148.157L155.541 9.04688H164.026ZM157.65 17.9541H161.87L159.76 13.6646L157.65 17.9541Z" fill="white"/>
<path d="M183.441 9H189.676L181.613 25.455H174.487L166.377 9H172.612L178.05 20.6732L183.441 9Z" fill="white"/>
<path d="M190.119 9.02344H208.285V13.5708H195.58V15.0241H207.464V19.4074H195.58V20.9076H208.285V25.455H190.119V9.02344Z" fill="white"/>
<path d="M210.006 9H222.078C223.648 9 229.18 9.21096 229.18 15.0475C229.18 18.0948 227.75 19.7356 226.157 20.6029L229.508 25.455L223.203 25.4315L220.414 21.5639C218.843 21.5639 216.382 21.5639 215.468 21.5639V25.455H210.006V9ZM221.562 16.7587C222.359 16.7587 223.602 16.5946 223.602 15.2351C223.602 13.8521 222.195 13.8052 221.492 13.8052C220.765 13.8052 215.468 13.8052 215.468 13.8052V16.7587C215.468 16.7587 220.789 16.7587 221.562 16.7587Z" fill="white"/>
<path d="M239.84 9.04688C248.443 9.04688 250.435 10.2423 250.435 15.0007C250.435 15.0007 245.56 15.0007 244.622 15.0007C244.622 14.1568 244.294 13.6646 239.981 13.6646C235.809 13.6646 235.457 13.8521 235.457 14.4615C235.504 14.9069 235.809 14.9303 239.934 15.2585C249.052 16.0086 251.021 16.1258 251.021 20.3685C251.021 24.5877 249.427 25.455 240.004 25.455C231.331 25.455 229.995 24.6111 229.995 19.8059C229.995 19.8059 234.941 19.8059 235.644 19.8059C235.644 20.7904 236.043 21.0248 240.239 21.0248C244.2 21.0248 244.645 21.0482 244.645 20.2981C244.645 19.7825 244.153 19.8762 239.84 19.5246C233.16 18.9855 229.761 18.6573 229.761 14.4147C229.761 9.53912 232.597 9.04688 239.84 9.04688Z" fill="white"/>
<path d="M252.244 9.02344H270.41V13.5708H257.706V15.0241H269.59V19.4074H257.706V20.9076H270.41V25.455H252.244V9.02344Z" fill="white"/>
<path d="M98.9937 48.0506H94.4932L90.4615 40.8544V48.0506H85V31.5956H91.4929L96.8138 40.7138L102.158 31.5956H108.675V48.0506H103.236V40.8076L98.9937 48.0506Z" fill="white"/>
<path d="M125.387 31.6425L132.747 48.0506H126.418L125.199 45.3081H117.065L115.823 48.0506H109.518L116.901 31.6425H125.387ZM119.011 40.5497H123.23L121.12 36.2602L119.011 40.5497Z" fill="white"/>
<path d="M140.102 38.4401H153.487V48.074H149.127V46.3629C147.814 47.4646 146.291 48.1209 142.329 48.1209C133.82 48.1209 131.125 44.7455 131.125 39.9872C131.125 34.1271 136.211 31.455 142.189 31.455C149.033 31.455 151.377 33.1895 152.854 36.143L147.767 37.8775C147.111 36.9399 145.611 36.143 142.142 36.143C137.547 36.143 136.586 37.7838 136.586 40.034C136.586 42.0968 137.43 43.6438 142.142 43.6438C145.54 43.6438 146.173 42.9875 146.853 42.3077H140.102V38.4401Z" fill="white"/>
<path d="M175.75 48.0506H168.296L160.233 38.1354V48.0506H154.771V31.5956H162.366L170.288 41.3467V31.5956H175.75V48.0506Z" fill="white"/>
<path d="M192.456 31.6425L199.817 48.0506H193.488L192.269 45.3081H184.135L182.893 48.0506H176.587L183.971 31.6425H192.456ZM186.081 40.5497H190.3L188.19 36.2602L186.081 40.5497Z" fill="white"/>
</svg>
