<svg id="Layer_1" height="512" viewBox="0 0 48 48" width="512" xmlns="http://www.w3.org/2000/svg" data-name="Layer 1"><path d="m42.059 40c-3.252 0-7.162-3.224-10.812-9h-14.494c-4.237 6.706-8.824 9.973-12.323 8.75a5.5 5.5 0 0 1 -3.077-3.056c-2.215-4.646-1.653-13.749 1.373-22.137a10.049 10.049 0 0 1 15.443-4.557h11.662a10.049 10.049 0 0 1 15.443 4.557c3.024 8.388 3.588 17.491 1.373 22.137a5.5 5.5 0 0 1 -3.077 3.056 4.555 4.555 0 0 1 -1.511.25z" fill="#34495e"/><g fill="#2c3e50"><path d="m44.794 36.735a4.854 4.854 0 0 1 -1.606.265c-3.455 0-7.609-3.425-11.488-9.565h-15.4c-4.5 7.125-9.376 10.6-13.094 9.3a5.249 5.249 0 0 1 -2.567-2.035 11.421 11.421 0 0 0 .714 2 5.5 5.5 0 0 0 3.077 3.05c3.5 1.223 8.086-2.044 12.323-8.75h14.494c3.65 5.778 7.56 9 10.812 9a4.555 4.555 0 0 0 1.511-.252 5.5 5.5 0 0 0 3.077-3.056 11.421 11.421 0 0 0 .714-2 5.249 5.249 0 0 1 -2.567 2.043z"/><path d="m26 25h-4a1 1 0 0 1 0-2h4a1 1 0 0 1 0 2z"/><circle cx="36" cy="19" r="7.5"/><circle cx="12" cy="19" r="7"/></g><circle cx="36" cy="15.5" fill="#f1c40f" r="1.5"/><circle cx="36" cy="22.5" fill="#3498db" r="1.5"/><circle cx="39.5" cy="19" fill="#2ecc71" r="1.5"/><circle cx="32.5" cy="19" fill="#e74c3c" r="1.5"/><path d="m15.5 17.5h-2v-2a1.5 1.5 0 0 0 -3 0v2h-2a1.5 1.5 0 0 0 0 3h2v2a1.5 1.5 0 0 0 3 0v-2h2a1.5 1.5 0 0 0 0-3z" fill="#ecf0f1"/></svg>