<svg id="Capa_1" enable-background="new 0 0 512 512" viewBox="0 0 512 512" xmlns="http://www.w3.org/2000/svg"><g><path d="m37.063 125.434 355.214-96.483c17.65-4.794 35.692 6.265 39.429 24.169l15.095 72.315-196.696 52.955z" fill="#5ed8bb"/><path d="m453.863 484.17h-423.863c-16.569 0-30-13.431-30-30v-300.383c0-16.569 13.431-30 30-30h423.863c16.569 0 30 13.431 30 30v300.383c0 16.569-13.432 30-30 30z" fill="#f6a96c"/><path d="m452.957 123.787h-2.06v296.51c0 17.069-13.837 30.905-30.905 30.905h-419.992v2.062c0 17.069 13.837 30.905 30.905 30.905h422.052c17.069 0 30.905-13.837 30.905-30.905v-298.572c.001-17.069-13.836-30.905-30.905-30.905z" fill="#ea9b58"/><path d="m501.806 344.559h-148.297c-20.442 0-37.014-16.572-37.014-37.014v-7.134c0-20.442 16.572-37.014 37.014-37.014h148.297c5.63 0 10.194 4.564 10.194 10.194v60.773c0 5.631-4.564 10.195-10.194 10.195z" fill="#c57a44"/><circle cx="87.545" cy="219.209" fill="#effafb" r="36.959"/><path d="m219.833 417.857h-159.298c-4.267 0-7.726-3.459-7.726-7.726s3.459-7.726 7.726-7.726h159.297c4.268 0 7.726 3.459 7.726 7.726.001 4.266-3.458 7.726-7.725 7.726z" fill="#c57a44"/><path d="m114.555 374.641h-54.02c-4.267 0-7.726-3.459-7.726-7.726s3.459-7.726 7.726-7.726h54.02c4.268 0 7.726 3.459 7.726 7.726s-3.458 7.726-7.726 7.726z" fill="#c57a44"/><path d="m379.185 311.705h-16.787c-4.268 0-7.726-3.459-7.726-7.726s3.459-7.726 7.726-7.726h16.787c4.268 0 7.726 3.459 7.726 7.726s-3.459 7.726-7.726 7.726z" fill="#effafb"/></g><g/><g/><g/><g/><g/><g/><g/><g/><g/><g/><g/><g/><g/><g/><g/></svg>