<?xml version="1.0" encoding="iso-8859-1"?>
<!-- Generator: Adobe Illustrator 19.0.0, SVG Export Plug-In . SVG Version: 6.00 Build 0)  -->
<svg version="1.1" id="Capa_1" xmlns="http://www.w3.org/2000/svg" xmlns:xlink="http://www.w3.org/1999/xlink" x="0px" y="0px"
	 viewBox="0 0 511.99 511.99" style="enable-background:new 0 0 511.99 511.99;" xml:space="preserve">
<circle style="fill:#FCD249;" cx="410.637" cy="83.602" r="83.602"/>
<g>
	<path style="fill:#F9B938;" d="M362.907,111.157C342.251,75.38,351.064,30.698,381.786,5.15c-4.41,1.627-8.745,3.625-12.953,6.054
		c-39.984,23.085-53.684,74.213-30.599,114.199c23.085,39.984,74.213,53.685,114.198,30.599c4.208-2.43,8.106-5.186,11.72-8.19
		C426.664,161.643,383.562,146.934,362.907,111.157z"/>
	<circle style="fill:#F9B938;" cx="410.637" cy="83.602" r="55.105"/>
</g>
<path style="fill:#E59C1C;" d="M385.21,98.28c-13-22.516-8.292-50.383,9.784-67.518c-4.074,1.209-8.074,2.897-11.916,5.115
	c-26.359,15.218-35.389,48.922-20.171,75.28c15.218,26.359,48.921,35.389,75.28,20.171c3.842-2.218,7.303-4.839,10.388-7.762
	C424.697,130.654,398.209,120.797,385.21,98.28z"/>
<circle style="fill:#FCD249;" cx="330.475" cy="83.602" r="83.602"/>
<g>
	<path style="fill:#F9B938;" d="M282.75,111.157C262.094,75.38,270.907,30.698,301.629,5.15c-4.41,1.627-8.745,3.625-12.953,6.054
		c-39.984,23.085-53.684,74.213-30.599,114.199c23.085,39.984,74.213,53.685,114.198,30.599c4.208-2.43,8.106-5.186,11.72-8.19
		C346.508,161.643,303.406,146.934,282.75,111.157z"/>
	<circle style="fill:#F9B938;" cx="330.475" cy="83.602" r="55.105"/>
</g>
<path style="fill:#E59C1C;" d="M305.054,98.28c-13-22.516-8.292-50.383,9.783-67.518c-4.074,1.209-8.074,2.897-11.916,5.115
	c-26.359,15.218-35.389,48.922-20.171,75.28s48.922,35.389,75.28,20.171c3.842-2.218,7.303-4.839,10.388-7.762
	C344.541,130.654,318.054,120.797,305.054,98.28z"/>
<path style="fill:#91CE91;" d="M337.475,140.108L202.802,4.406c-5.825-5.825-15.358-5.825-21.183,0L46.948,140.108H337.475z"/>
<g>
	<path style="fill:#5EAA5E;" d="M202.802,4.406c-5.825-5.825-15.358-5.825-21.183,0L46.948,140.108h40.176L212.299,13.975
		L202.802,4.406z"/>
	<path style="fill:#5EAA5E;" d="M181.62,44.693l-94.385,95.416h209.953l-94.385-95.416C196.977,38.867,187.445,38.867,181.62,44.693
		z"/>
</g>
<path style="fill:#4D964D;" d="M202.802,44.693c-5.825-5.825-15.358-5.825-21.183,0l-94.385,95.416h26.784l91.585-92.585
	L202.802,44.693z"/>
<path style="fill:#DD9A5E;" d="M511.971,393.73v71.59c0,25.734-20.935,46.669-46.669,46.669H46.687
	c-25.734,0-46.669-20.935-46.669-46.669V185.746c0-25.733,20.935-46.668,46.669-46.668h418.616
	c25.734,0,46.669,20.935,46.669,46.668v71.317"/>
<g>
	<path style="fill:#D38D54;" d="M28.862,465.321V185.746c0-25.733,20.935-46.668,46.669-46.668H46.687
		c-25.734,0-46.669,20.935-46.669,46.668v279.575c0,25.734,20.935,46.669,46.669,46.669h28.844
		C49.797,511.99,28.862,491.054,28.862,465.321z"/>
	<path style="fill:#D38D54;" d="M511.971,259.604H392.914c-36.262,0-65.93,29.668-65.93,65.93l0,0
		c0,36.262,29.668,65.929,65.93,65.929h119.057V259.604z"/>
</g>
<path style="fill:#C17B48;" d="M328.544,311.371c-1.01,4.568-1.559,9.302-1.559,14.162l0,0c0,36.262,29.668,65.929,65.93,65.929
	h119.057v-28.324H392.915C361.513,363.139,335.071,340.884,328.544,311.371z"/>
<circle style="fill:#DADADA;" cx="394.729" cy="325.22" r="37.087"/>
<path style="fill:#C0C0C0;" d="M417.25,342.505c-19.784-5.302-31.524-25.637-26.224-45.42c0.86-3.208,2.12-6.2,3.704-8.946
	c-16.383-0.009-31.379,10.913-35.821,27.489c-5.302,19.784,6.439,40.119,26.224,45.42c16.575,4.442,33.533-3.085,41.717-17.277
	C423.679,343.768,420.457,343.363,417.25,342.505z"/>
<path style="fill:#EAB883;" d="M37.746,483.225c0.287-4.258,3.967-7.461,8.228-7.189c0.2,0.014,0.403,0.021,0.605,0.023
	c4.267,0.05,7.685,3.549,7.636,7.815C54.091,494.607,37.044,493.635,37.746,483.225z M457.107,491.511h-1.037
	c-4.267,0-7.726-3.459-7.726-7.726c0-4.268,3.459-7.726,7.726-7.726h1.037c4.267,0,7.726,3.459,7.726,7.726
	C464.833,488.052,461.374,491.511,457.107,491.511z M419.777,491.511h-1.037c-4.267,0-7.726-3.459-7.726-7.726
	c0-4.268,3.459-7.726,7.726-7.726h1.037c4.267,0,7.726,3.459,7.726,7.726S424.045,491.511,419.777,491.511z M382.45,491.511h-1.037
	c-4.267,0-7.726-3.459-7.726-7.726c0-4.268,3.459-7.726,7.726-7.726h1.037c4.267,0,7.726,3.459,7.726,7.726
	C390.175,488.052,386.716,491.511,382.45,491.511z M345.12,491.511h-1.037c-4.267,0-7.726-3.459-7.726-7.726
	c0-4.268,3.459-7.726,7.726-7.726h1.037c4.267,0,7.726,3.459,7.726,7.726S349.388,491.511,345.12,491.511z M307.792,491.511h-1.037
	c-4.267,0-7.726-3.459-7.726-7.726c0-4.268,3.459-7.726,7.726-7.726h1.037c4.267,0,7.726,3.459,7.726,7.726
	S312.058,491.511,307.792,491.511z M270.463,491.511h-1.037c-4.267,0-7.726-3.459-7.726-7.726c0-4.268,3.459-7.726,7.726-7.726
	h1.037c4.267,0,7.726,3.459,7.726,7.726C278.188,488.052,274.73,491.511,270.463,491.511z M233.134,491.511h-1.037
	c-4.267,0-7.726-3.459-7.726-7.726c0-4.268,3.46-7.726,7.726-7.726h1.037c4.267,0,7.726,3.459,7.726,7.726
	C240.86,488.052,237.401,491.511,233.134,491.511z M195.805,491.511h-1.037c-4.267,0-7.726-3.459-7.726-7.726
	c0-4.268,3.459-7.726,7.726-7.726h1.037c4.267,0,7.726,3.459,7.726,7.726C203.531,488.052,200.072,491.511,195.805,491.511z
	 M158.476,491.511h-1.037c-4.267,0-7.726-3.459-7.726-7.726c0-10.303,16.488-10.335,16.488,0
	C166.202,488.052,162.743,491.511,158.476,491.511z M121.148,491.511h-1.037c-4.267,0-7.726-3.459-7.726-7.726
	c0-10.303,16.489-10.335,16.489,0C128.874,488.052,125.414,491.511,121.148,491.511z M83.818,491.511h-1.037
	c-4.267,0-7.726-3.459-7.726-7.726c0-4.268,3.459-7.726,7.726-7.726h1.037c4.267,0,7.726,3.459,7.726,7.726
	S88.086,491.511,83.818,491.511z M483.751,473.957c-0.126,0-0.252-0.003-0.379-0.009c-4.263-0.206-7.55-3.828-7.344-8.09
	c0.009-0.178,0.013-0.357,0.013-0.537v-0.126c0-4.268,3.459-7.726,7.726-7.726c4.267,0,7.726,3.459,7.726,7.726v0.126
	c0,0.43-0.011,0.858-0.031,1.284C491.262,470.739,487.846,473.957,483.751,473.957z M28.222,464.528
	c-4.267,0-7.726-3.459-7.726-7.726v-1.036c0-4.268,3.459-7.726,7.726-7.726s7.726,3.459,7.726,7.726v1.036
	C35.949,461.07,32.49,464.528,28.222,464.528z M483.767,436.63c-4.267,0-7.726-3.459-7.726-7.726v-1.037
	c0-4.268,3.459-7.726,7.726-7.726c4.267,0,7.726,3.459,7.726,7.726v1.037C491.493,433.171,488.033,436.63,483.767,436.63z
	 M28.222,427.2c-4.267,0-7.726-3.459-7.726-7.726v-1.036c0-4.268,3.459-7.726,7.726-7.726s7.726,3.459,7.726,7.726v1.036
	C35.949,423.741,32.49,427.2,28.222,427.2z M28.222,389.87c-4.267,0-7.726-3.459-7.726-7.726v-1.036
	c0-4.268,3.459-7.726,7.726-7.726s7.726,3.459,7.726,7.726v1.036C35.949,386.412,32.49,389.87,28.222,389.87z M28.222,352.542
	c-4.267,0-7.726-3.459-7.726-7.726v-1.036c0-4.268,3.459-7.726,7.726-7.726C38.548,336.053,38.536,352.542,28.222,352.542z
	 M28.222,315.214c-4.267,0-7.726-3.459-7.726-7.726v-1.037c0-4.268,3.459-7.726,7.726-7.726s7.726,3.459,7.726,7.726v1.037
	C35.949,311.755,32.49,315.214,28.222,315.214z M28.222,277.884c-4.267,0-7.726-3.459-7.726-7.726v-1.037
	c0-4.268,3.459-7.726,7.726-7.726s7.726,3.459,7.726,7.726v1.037C35.949,274.426,32.49,277.884,28.222,277.884z M28.222,240.556
	c-4.267,0-7.726-3.459-7.726-7.726v-1.037c0-4.268,3.459-7.726,7.726-7.726s7.726,3.459,7.726,7.726v1.037
	C35.949,237.097,32.49,240.556,28.222,240.556z M483.767,230.73c-4.267,0-7.726-3.459-7.726-7.726v-1.037
	c0-4.268,3.459-7.726,7.726-7.726c4.267,0,7.726,3.459,7.726,7.726v1.037C491.493,227.271,488.033,230.73,483.767,230.73z
	 M28.222,203.227c-4.267,0-7.726-3.459-7.726-7.726v-1.037c0-4.268,3.459-7.726,7.726-7.726s7.726,3.459,7.726,7.726v1.037
	C35.949,199.769,32.49,203.227,28.222,203.227z M476.04,185.708c-0.001-0.207-0.008-0.413-0.02-0.617
	c-0.602-10.272,15.421-11.685,15.472,0.55c0.019,4.267-3.426,7.741-7.692,7.759C479.447,193.401,476.058,189.912,476.04,185.708z
	 M45.249,175.065c-9.814,0-11.036-15.262,0.887-15.502C56.073,159.313,57.458,175.065,45.249,175.065z M456.909,175.009h-1.037
	c-4.267,0-7.726-3.459-7.726-7.726s3.459-7.726,7.726-7.726h1.037c4.267,0,7.726,3.459,7.726,7.726S461.176,175.009,456.909,175.009
	z M419.58,175.009h-1.037c-4.267,0-7.726-3.459-7.726-7.726s3.459-7.726,7.726-7.726h1.037c4.267,0,7.726,3.459,7.726,7.726
	S423.847,175.009,419.58,175.009z M382.251,175.009h-1.037c-4.267,0-7.726-3.459-7.726-7.726s3.459-7.726,7.726-7.726h1.037
	c4.267,0,7.726,3.459,7.726,7.726S386.518,175.009,382.251,175.009z M344.922,175.009h-1.037c-4.267,0-7.726-3.459-7.726-7.726
	s3.46-7.726,7.726-7.726h1.037c4.267,0,7.726,3.459,7.726,7.726S349.189,175.009,344.922,175.009z M307.594,175.009h-1.037
	c-4.267,0-7.726-3.459-7.726-7.726s3.459-7.726,7.726-7.726h1.037c4.267,0,7.726,3.459,7.726,7.726S311.86,175.009,307.594,175.009z
	 M270.265,175.009h-1.037c-4.267,0-7.726-3.459-7.726-7.726s3.459-7.726,7.726-7.726h1.037c4.267,0,7.726,3.459,7.726,7.726
	S274.532,175.009,270.265,175.009z M232.937,175.009H231.9c-4.267,0-7.726-3.459-7.726-7.726s3.459-7.726,7.726-7.726h1.037
	c4.267,0,7.726,3.459,7.726,7.726S237.203,175.009,232.937,175.009z M195.607,175.009h-1.037c-4.267,0-7.726-3.459-7.726-7.726
	c0-10.303,16.489-10.335,16.489,0C203.333,171.551,199.875,175.009,195.607,175.009z M158.278,175.009h-1.037
	c-4.267,0-7.726-3.459-7.726-7.726s3.459-7.726,7.726-7.726h1.037c4.267,0,7.726,3.459,7.726,7.726S162.545,175.009,158.278,175.009
	z M120.95,175.009h-1.037c-4.267,0-7.726-3.459-7.726-7.726s3.459-7.726,7.726-7.726h1.037c4.267,0,7.726,3.459,7.726,7.726
	S125.216,175.009,120.95,175.009z M83.62,175.009h-1.037c-4.267,0-7.726-3.459-7.726-7.726s3.459-7.726,7.726-7.726h1.037
	c4.267,0,7.726,3.459,7.726,7.726S87.888,175.009,83.62,175.009z"/>
<g>
</g>
<g>
</g>
<g>
</g>
<g>
</g>
<g>
</g>
<g>
</g>
<g>
</g>
<g>
</g>
<g>
</g>
<g>
</g>
<g>
</g>
<g>
</g>
<g>
</g>
<g>
</g>
<g>
</g>
</svg>
